<svg width="102" height="81" viewBox="0 0 102 81" fill="none" xmlns="http://www.w3.org/2000/svg">
<path d="M38.2621 14.4453L7.3103 38.0308C3.72951 40.7594 4.06437 46.2844 7.9723 48.9536L27.6649 62.4037C31.3123 64.8949 36.1858 63.5692 37.7425 59.6624L56.4298 12.7623" stroke="#FFD600" stroke-width="8"/>
<path d="M63.7374 67.0784L94.6892 43.4929C98.27 40.7643 97.9351 35.2392 94.0272 32.5701L74.3346 19.1199C70.6872 16.6287 65.8137 17.9544 64.257 21.8613L45.5697 68.7614" stroke="#FFD600" stroke-width="8"/>
<mask id="path-3-inside-1_222_422" fill="white">
<ellipse cx="2.93907" cy="2.34989" rx="2.93907" ry="2.34989" transform="matrix(0.995737 -0.0922392 -0.145216 -0.9894 48.2954 42.1179)"/>
</mask>
<path d="M49.8243 39.6197C49.9383 40.3962 50.4163 40.8449 50.6752 41.0076C50.926 41.1653 51.0881 41.1575 51.1203 41.1545L49.9586 33.2393C52.8969 32.9671 57.1664 34.6317 57.7902 38.8818L49.8243 39.6197ZM51.1203 41.1545C51.1526 41.1515 51.3125 41.1295 51.511 40.9302C51.7158 40.7245 52.0511 40.2005 51.9371 39.424L43.9712 40.1619C43.3474 35.9118 47.0203 33.5115 49.9586 33.2393L51.1203 41.1545ZM51.9371 39.424C51.8231 38.6475 51.3451 38.1988 51.0862 38.0361C50.8354 37.8784 50.6734 37.8862 50.6411 37.8892L51.8028 45.8044C48.8645 46.0766 44.595 44.412 43.9712 40.1619L51.9371 39.424ZM50.6411 37.8892C50.6088 37.8922 50.4489 37.9142 50.2505 38.1135C50.0456 38.3192 49.7103 38.8432 49.8243 39.6197L57.7902 38.8818C58.414 43.1319 54.7412 45.5322 51.8028 45.8044L50.6411 37.8892Z" fill="#001D3D" style="mix-blend-mode:color" mask="url(#path-3-inside-1_222_422)"/>
<path d="M41.437 40.4125C40.9168 36.8686 44.1906 32.9372 49.8572 32.4123C55.5238 31.8874 59.8482 35.1149 60.3684 38.6588C60.8885 42.2027 57.6148 46.134 51.9482 46.6589C46.2816 47.1839 41.9571 43.9564 41.437 40.4125Z" stroke="#001D3D" stroke-width="4" style="mix-blend-mode:darken"/>
</svg>
